<svg width="90" height="90" viewBox="0 0 90 90" fill="none" xmlns="http://www.w3.org/2000/svg">
<path d="M69.1343 0.780518H21.8385C10.3146 0.780518 0.972656 10.1225 0.972656 21.6463V68.9421C0.972656 80.466 10.3146 89.8079 21.8385 89.8079H69.1343C80.6581 89.8079 90.0001 80.466 90.0001 68.9421V21.6463C90.0001 10.1225 80.6581 0.780518 69.1343 0.780518Z" fill="url(#paint0_linear_210314_317)"/>
<path d="M45.6515 57.3517H31.1623L28.202 66.505C28.1242 66.8555 27.8127 67.0892 27.4622 67.0502H20.1395C19.7111 67.0502 19.5943 66.8165 19.7111 66.3491L32.253 30.2429C32.3698 29.8536 32.4867 29.4249 32.6422 28.9576C32.7982 28.1396 32.8759 27.283 32.8759 26.426C32.8372 26.2313 32.9928 26.0363 33.1878 25.9976H43.2755C43.5873 25.9976 43.7429 26.1145 43.7819 26.3091L57.9984 66.4272C58.1152 66.8555 57.9984 67.0502 57.6091 67.0502H49.4684C49.196 67.0892 48.9233 66.8946 48.8455 66.6218L45.6515 57.3517ZM33.4215 49.4451H43.3145C43.0808 48.6272 42.7694 47.6533 42.4188 46.6407C42.0683 45.5891 41.7177 44.4597 41.3672 43.2912C40.9776 42.0837 40.627 40.9152 40.2374 39.7076C39.8481 38.5004 39.4976 37.3706 39.1858 36.2412C38.8743 35.1509 38.6015 34.138 38.3291 33.2032H38.251C37.9004 34.8781 37.4721 36.5531 36.9269 38.2277C36.3427 40.0972 35.7584 42.0446 35.1351 43.9923C34.6321 45.8306 34.0605 47.6495 33.4215 49.4451ZM66.6842 32.8136C65.3989 32.8526 64.1526 32.3462 63.2178 31.4504C62.3221 30.4766 61.8547 29.1913 61.8934 27.8672C61.8547 26.5428 62.3608 25.2965 63.2956 24.4005C64.2304 23.5047 65.477 23.0374 66.7624 23.0374C68.2814 23.0374 69.4499 23.5047 70.3065 24.4005C71.1697 25.3448 71.6308 26.5884 71.5919 27.8672C71.6309 29.1913 71.1635 30.4766 70.2288 31.4504C69.333 32.3852 68.0086 32.8917 66.6842 32.8136ZM62.3221 66.6218V36.6308C62.3221 36.2412 62.4777 36.0853 62.8282 36.0853H70.5402C70.8908 36.0853 71.0467 36.2803 71.0467 36.6308V66.6218C71.0467 67.0502 70.8908 67.2452 70.5402 67.2452H62.9064C62.5168 67.2452 62.3221 67.0115 62.3221 66.6218Z" fill="#151E3F"/>
<defs>
<linearGradient id="paint0_linear_210314_317" x1="2.56761" y1="7.70487" x2="94.7851" y2="7.65174" gradientUnits="userSpaceOnUse">
<stop stop-color="#9C27B0"/>
<stop offset="1" stop-color="#FF5722"/>
</linearGradient>
</defs>
</svg>
