<svg width="89" height="89" viewBox="0 0 89 89" fill="none" xmlns="http://www.w3.org/2000/svg">
<path d="M42.9091 42.694H0C0.00145377 45.2386 0.504753 47.7578 1.48108 50.1076C2.45742 52.4574 3.88761 54.5915 5.68979 56.3878C7.49196 58.1841 9.63074 59.6074 11.9837 60.576C14.3366 61.5447 16.8575 62.0398 19.402 62.033H27.3007V69.661C27.3007 74.7888 29.3372 79.7066 32.9624 83.3331C36.5875 86.9597 41.5045 88.998 46.6323 89V46.4209C46.6323 45.4325 46.2396 44.4845 45.5407 43.7856C44.8418 43.0867 43.8938 42.694 42.9054 42.694H42.9091ZM64.1319 21.3489H21.271C21.272 26.4772 23.3099 31.3952 26.9365 35.0212C30.5632 38.6471 35.4816 40.6841 40.6099 40.6841H48.505V48.3159C48.5089 53.4433 50.5478 58.3596 54.1738 61.9849C57.7998 65.6102 62.7165 67.6482 67.8439 67.6511V25.0609C67.8439 24.0764 67.4528 23.1323 66.7567 22.4361C66.0606 21.74 65.1164 21.3489 64.1319 21.3489ZM85.3398 0H42.4789C42.4789 5.12901 44.5164 10.0479 48.1432 13.6747C51.7699 17.3015 56.6889 19.339 61.8179 19.339H69.7129V26.967C69.7168 32.0845 71.7489 36.9917 75.364 40.6138C78.9792 44.2359 83.8825 46.2774 89 46.2911V3.72687C89.004 2.74874 88.6217 1.80856 87.9364 1.11069C87.251 0.412823 86.3179 0.0136721 85.3398 0Z" fill="url(#paint0_linear_210314_281)"/>
<defs>
<linearGradient id="paint0_linear_210314_281" x1="1.59446" y1="6.92222" x2="93.7836" y2="6.8691" gradientUnits="userSpaceOnUse">
<stop stop-color="#9C27B0"/>
<stop offset="1" stop-color="#FF5722"/>
</linearGradient>
</defs>
</svg>
