<svg width="58" height="89" viewBox="0 0 58 89" fill="none" xmlns="http://www.w3.org/2000/svg">
<path d="M13.3846 0C9.8348 0 6.43037 1.40651 3.92027 3.91012C1.41017 6.41374 5.09286e-06 9.80936 5.09286e-06 13.35C5.09286e-06 16.8906 1.41017 20.2863 3.92027 22.7899C6.43037 25.2935 9.8348 26.7 13.3846 26.7H44.6154C48.1652 26.7 51.5696 25.2935 54.0797 22.7899C56.5898 20.2863 58 16.8906 58 13.35C58 9.80936 56.5898 6.41374 54.0797 3.91012C51.5696 1.40651 48.1652 0 44.6154 0H13.3846ZM44.6154 31.15C41.0656 31.15 37.6611 32.5565 35.151 35.0601C32.6409 37.5637 31.2308 40.9594 31.2308 44.5C31.2308 48.0406 32.6409 51.4363 35.151 53.9399C37.6611 56.4435 41.0656 57.85 44.6154 57.85C48.1652 57.85 51.5696 56.4435 54.0797 53.9399C56.5898 51.4363 58 48.0406 58 44.5C58 40.9594 56.5898 37.5637 54.0797 35.0601C51.5696 32.5565 48.1652 31.15 44.6154 31.15ZM5.09286e-06 44.5C5.09286e-06 40.9594 1.41017 37.5637 3.92027 35.0601C6.43037 32.5565 9.8348 31.15 13.3846 31.15H26.7692V57.85H13.3846C9.8348 57.85 6.43037 56.4435 3.92027 53.9399C1.41017 51.4363 5.09286e-06 48.0406 5.09286e-06 44.5ZM13.3846 62.3C10.7374 62.3 8.14961 63.083 5.94853 64.5499C3.74744 66.0168 2.0319 68.1018 1.01885 70.5412C0.00579937 72.9806 -0.259261 75.6648 0.257188 78.2545C0.773636 80.8441 2.0484 83.2228 3.92027 85.0899C5.79214 86.9569 8.17705 88.2284 10.7734 88.7435C13.3698 89.2586 16.061 88.9942 18.5067 87.9838C20.9524 86.9734 23.0428 85.2623 24.5135 83.0669C25.9842 80.8715 26.7692 78.2904 26.7692 75.65V62.3H13.3846Z" fill="url(#paint0_linear_210314_283)"/>
<defs>
<linearGradient id="paint0_linear_210314_283" x1="1.03909" y1="6.92222" x2="61.1174" y2="6.89966" gradientUnits="userSpaceOnUse">
<stop stop-color="#9C27B0"/>
<stop offset="1" stop-color="#FF5722"/>
</linearGradient>
</defs>
</svg>
