<svg width="95" height="71" viewBox="0 0 95 71" fill="none" xmlns="http://www.w3.org/2000/svg">
<g clip-path="url(#clip0_210314_269)">
<path d="M0 0H95V71H0V0Z" fill="#012169"/>
<path d="M11.1328 0L47.3516 26.7729L83.4219 0H95V9.17083L59.375 35.6479L95 61.9771V71H83.125L47.5 44.5229L12.0234 71H0V62.125L35.4766 35.7958L0 9.46667V0H11.1328Z" fill="white"/>
<path d="M62.9375 41.5646L95 65.0833V71L54.7734 41.5646H62.9375ZM35.625 44.5229L36.5156 49.7L8.01562 71H0L35.625 44.5229ZM95 0V0.44375L58.0391 28.2521L58.3359 21.7437L87.5781 0H95ZM0 0L35.4766 26.0333H26.5703L0 6.2125V0Z" fill="#C8102E"/>
<path d="M35.7734 0V71H59.5234V0H35.7734ZM0 23.6667V47.3333H95V23.6667H0Z" fill="white"/>
<path d="M0 28.5479V42.7479H95V28.5479H0ZM40.5234 0V71H54.7734V0H40.5234Z" fill="#C8102E"/>
</g>
<defs>
<clipPath id="clip0_210314_269">
<rect width="95" height="71" fill="white"/>
</clipPath>
</defs>
</svg>
