<svg width="91" height="89" viewBox="0 0 91 89" fill="none" xmlns="http://www.w3.org/2000/svg">
<path d="M3.29946 68.2781C2.3591 69.7298 1.28983 71.6033 0.406354 73.0094C0.0185029 73.6637 -0.097489 74.4445 0.0833484 75.1837C0.264186 75.9229 0.727391 76.5613 1.37325 76.9616L20.1993 88.5675C20.5265 88.7699 20.8907 88.9049 21.2705 88.9648C21.6504 89.0246 22.0383 89.0081 22.4117 88.9161C22.7851 88.8241 23.1365 88.6586 23.4454 88.4291C23.7543 88.1996 24.0146 87.9108 24.211 87.5795C24.9655 86.3178 25.9324 84.6799 26.9903 82.9394C34.4487 70.6 41.9488 72.0973 55.4588 78.5843L74.2544 87.4655C74.6045 87.6327 74.9845 87.7278 75.372 87.745C75.7594 87.7623 76.1463 87.7015 76.5098 87.5661C76.8733 87.4307 77.206 87.2235 77.4882 86.9569C77.7703 86.6903 77.9962 86.3695 78.1524 86.0138L87.1161 65.6977C87.4195 65.0004 87.4378 64.2115 87.1669 63.5008C86.8961 62.7902 86.3577 62.2144 85.6676 61.8975C79.3786 58.9355 73.1032 55.9447 66.8416 52.9251C41.3724 40.5858 19.8087 41.4028 3.29946 68.2781ZM87.7076 20.7219C88.6517 19.1828 89.721 17.3967 90.6045 15.9716C90.9849 15.3189 91.0964 14.5432 90.9151 13.8094C90.7338 13.0756 90.2741 12.4416 89.6338 12.0422L70.8115 0.432451C70.4843 0.230099 70.1201 0.0950643 69.7403 0.0352203C69.3604 -0.0246237 68.9725 -0.00807926 68.5991 0.0838887C68.2257 0.175857 67.8743 0.341408 67.5654 0.57089C67.2565 0.800372 66.9963 1.08919 66.7999 1.42051C65.8889 2.98227 64.9611 4.53412 64.0167 6.0758C56.5621 18.4114 49.0583 16.9065 35.5483 10.4309L16.8246 1.53452C16.4747 1.36791 16.0951 1.27332 15.7081 1.25635C15.3211 1.23938 14.9346 1.30038 14.5715 1.43572C14.2084 1.57107 13.8761 1.77803 13.5943 2.04435C13.3124 2.31066 13.0867 2.63093 12.9305 2.98621L3.96681 23.3023C3.66332 23.9996 3.64505 24.7885 3.91593 25.4991C4.1868 26.2098 4.72518 26.7856 5.41525 27.1025C9.35488 28.9646 17.1886 32.6775 24.2413 36.0749C49.6384 48.4104 71.2286 47.5858 87.7076 20.7219Z" fill="url(#paint0_linear_210314_279)"/>
<defs>
<linearGradient id="paint0_linear_210314_279" x1="1.63029" y1="6.92222" x2="95.8911" y2="6.86669" gradientUnits="userSpaceOnUse">
<stop stop-color="#9C27B0"/>
<stop offset="1" stop-color="#FF5722"/>
</linearGradient>
</defs>
</svg>
