<svg width="92" height="89" viewBox="0 0 92 89" fill="none" xmlns="http://www.w3.org/2000/svg">
<path d="M37.7583 30.8851C36.34 30.3145 34.8067 30.0863 33.235 30.1244C32.2383 30.1244 31.3567 30.1244 30.6283 30.1624C29.8617 30.1244 29.325 30.1624 29.0567 30.2004V42.9805C29.5933 43.0185 30.0917 43.0565 30.5517 43.0565H32.5833C34.0783 43.0565 35.5733 42.8283 36.9917 42.3719C38.2183 42.0296 39.2917 41.3069 40.135 40.356C40.94 39.4051 41.3233 38.1119 41.3233 36.4383C41.3617 35.2592 41.055 34.0801 40.4417 33.0531C39.8025 32.0655 38.8625 31.306 37.7583 30.8851ZM75.7083 0H16.2917C7.28333 0 0 7.2268 0 16.1652V72.8348C0 81.7732 7.28333 89 16.2917 89H75.7083C84.7167 89 92 81.7732 92 72.8348V16.1652C92 7.2268 84.7167 0 75.7083 0ZM47.3762 44.3117C45.8467 46.4417 43.7 48.0392 41.2083 48.9521C38.6017 49.903 35.7267 50.2453 32.5833 50.2453C31.6633 50.2453 31.05 50.2453 30.6667 50.2073C30.2833 50.1692 29.7467 50.1692 29.0183 50.1692V62.3749C29.0567 62.6412 28.865 62.8732 28.5967 62.9112H21.16C20.8533 62.9112 20.7 62.7553 20.7 62.413V23.2779C20.7 23.0117 20.815 22.8595 21.0833 22.8595C21.735 22.8595 22.3483 22.8595 23.23 22.8215C24.15 22.7835 25.1083 22.7835 26.1433 22.7454C27.1783 22.7074 28.29 22.7074 29.4783 22.6693C30.6667 22.6313 31.8167 22.6313 32.9667 22.6313C36.11 22.6313 38.7167 23.0117 40.8633 23.8104C42.78 24.457 44.5433 25.522 46 26.9294C47.2267 28.1465 48.185 29.6299 48.7983 31.2654C49.3695 32.8629 49.6762 34.4985 49.6762 36.2101C49.68 39.4812 48.9133 42.1817 47.3762 44.3117ZM74.5583 59.1077C73.485 60.6291 71.9862 61.8044 70.265 62.4966C68.3867 63.2916 66.0867 63.7062 63.3228 63.7062C61.5633 63.7062 59.8345 63.5578 58.1133 63.2155C56.7717 62.9835 55.43 62.5689 54.2033 61.9984C53.935 61.85 53.7395 61.5838 53.7778 61.2795V54.6613C53.7778 54.551 53.82 54.395 53.935 54.3189C54.0462 54.2429 54.165 54.2809 54.28 54.357C55.775 55.2318 57.3467 55.8442 59.0333 56.2207C60.4862 56.6011 62.0195 56.7913 63.5567 56.7913C65.0133 56.7913 66.0483 56.5973 66.7383 56.255C67.3517 55.9887 67.7733 55.3421 67.7733 54.6575C67.7733 54.1212 67.4667 53.6305 66.8533 53.136C66.24 52.6454 64.9788 52.0748 63.1005 51.3445C61.1455 50.6599 59.3477 49.747 57.6572 48.6098C56.4577 47.7573 55.4617 46.6536 54.74 45.3767C54.1307 44.1733 53.8293 42.8396 53.8622 41.4933C53.8622 39.8577 54.3222 38.2983 55.1693 36.8909C56.1277 35.3695 57.5422 34.1524 59.1905 33.3916C60.9883 32.4826 63.25 32.0642 65.9717 32.0642C67.5433 32.0642 69.1533 32.1783 70.725 32.4065C71.875 32.5587 72.9867 32.8629 74.0217 33.2813C74.1712 33.3194 74.3283 33.4715 74.405 33.6237C74.4433 33.7758 74.4817 33.9279 74.4817 34.0801V40.2799C74.4817 40.4321 74.405 40.5842 74.29 40.6603C73.945 40.7364 73.7533 40.7364 73.6 40.6603C72.45 40.0517 71.2233 39.6333 69.92 39.3671C68.5017 39.0628 67.0833 38.8726 65.6267 38.8726C64.86 38.8346 64.055 38.9487 63.3228 39.1389C62.8283 39.253 62.4028 39.5192 62.1345 39.8996C61.9428 40.2039 61.8278 40.5842 61.8278 40.9265C61.8278 41.2689 61.9812 41.6112 62.215 41.9155C62.56 42.3339 63.0162 42.6762 63.5183 42.9424C64.3962 43.3989 65.32 43.8173 66.2362 44.1976C68.31 44.8823 70.3033 45.8332 72.1433 46.9742C73.4083 47.7692 74.4433 48.838 75.1678 50.1312C75.7812 51.3407 76.0878 52.6796 76.0495 54.0451C76.0917 55.8366 75.555 57.6205 74.5583 59.1077Z" fill="url(#paint0_linear_210314_282)"/>
<defs>
<linearGradient id="paint0_linear_210314_282" x1="1.64821" y1="6.92222" x2="96.9448" y2="6.86546" gradientUnits="userSpaceOnUse">
<stop stop-color="#9C27B0"/>
<stop offset="1" stop-color="#FF5722"/>
</linearGradient>
</defs>
</svg>
