<svg width="153" height="75" viewBox="0 0 153 75" fill="none" xmlns="http://www.w3.org/2000/svg">
<path d="M0 0V75H77.3288L153 0H0ZM20.808 13.9488H20.8399C26.3415 13.9551 33.048 15.4965 37.8994 17.9477L32.6719 26.9816C27.3487 24.4293 24.6713 24.1893 21.6431 24.0313C17.1296 23.7913 14.8601 25.3896 14.8282 27.1142C14.7836 29.2116 19.0931 31.1131 23.1476 32.4082C29.2931 34.3413 37.1089 36.9251 38.301 44.4112L49.5338 14.9912H62.577L75.735 50.2169L75.6904 14.9975H90.7991C105.188 14.9975 111.951 19.824 111.951 30.911C111.951 40.8608 105.003 46.7929 93.2344 46.7929H88.3703L88.3065 60.0215L65.433 60.0025L63.8392 54.2663C61.4805 55.0371 58.8221 55.4603 55.998 55.4603C53.091 55.4603 50.3561 55.0118 47.9464 54.1968L45.6641 60.0025L32.9141 60.0404L33.4879 57.1218C33.303 57.2797 33.1245 57.4377 32.9332 57.5893C29.5226 60.3058 25.2322 61.5629 19.9474 61.6577L18.5895 61.6703C12.8193 61.7284 7.13835 60.2562 2.13563 57.4061L6.78938 48.2585C11.8256 51.2087 14.9876 51.8721 19.2589 51.7836C21.471 51.7394 23.0711 51.3414 24.1103 50.2738C24.722 49.6458 25.0765 48.815 25.1048 47.9426C25.1494 45.5673 21.726 44.4491 17.5504 43.1667C14.1653 42.1306 10.3147 40.7092 7.31212 38.5234C3.7485 35.9333 2.05275 32.6862 2.13563 28.0997C2.15728 24.8466 3.45063 21.7285 5.74388 19.4007C9.0525 16.0083 14.3947 13.9488 20.808 13.9488ZM88.3639 24.4988V36.5271H91.6852C96.1095 36.5271 99.6349 35.0741 99.6413 30.4372C99.6413 25.9581 96.1095 24.4988 91.6852 24.4988H88.3639ZM55.9343 29.3443L51.1657 44.2659C52.5874 44.8029 54.2321 45.1061 55.9916 45.1061C57.7001 45.1061 59.3066 44.8092 60.7219 44.3101L56.0299 29.3379L55.9343 29.3443Z" fill="url(#paint0_linear_210321_345)"/>
<defs>
<linearGradient id="paint0_linear_210321_345" x1="2.74104" y1="5.83333" x2="161.223" y2="5.64706" gradientUnits="userSpaceOnUse">
<stop stop-color="#9C27B0"/>
<stop offset="1" stop-color="#FF5722"/>
</linearGradient>
</defs>
</svg>
