<svg width="89" height="89" viewBox="0 0 89 89" fill="none" xmlns="http://www.w3.org/2000/svg">
<g clip-path="url(#clip0_210314_289)">
<path d="M68.1406 0H20.8594C9.33906 0 0 9.33906 0 20.8594V68.1406C0 79.6609 9.33906 89 20.8594 89H68.1406C79.6609 89 89 79.6609 89 68.1406V20.8594C89 9.33906 79.6609 0 68.1406 0Z" fill="url(#paint0_linear_210314_289)"/>
<path d="M44.5004 51.0885C48.0827 51.0885 50.9863 48.1845 50.9863 44.6026C50.9863 41.0207 48.0827 38.1167 44.5004 38.1167C40.9185 38.1167 38.0145 41.0207 38.0145 44.6026C38.0145 48.1845 40.9185 51.0885 44.5004 51.0885Z" fill="#151E3F"/>
<path d="M44.5007 31.4153C53.2088 31.4153 61.2984 32.6647 67.398 34.7649C74.7471 37.2948 79.2656 41.1298 79.2656 44.6025C79.2656 48.2213 74.477 52.2955 66.5849 54.9102C60.6184 56.887 52.7669 57.9188 44.5007 57.9188C36.0255 57.9188 27.9999 56.9503 21.966 54.8883C14.3321 52.2791 9.73438 48.1525 9.73438 44.6025C9.73438 41.158 14.0488 37.3525 21.2946 34.8265C27.4169 32.6918 35.706 31.4153 44.4993 31.4153H44.5007Z" stroke="#151E3F" stroke-width="4"/>
<path d="M33.0207 38.0468C37.3713 30.5034 42.4947 24.1197 47.3612 19.8852C53.224 14.7827 58.8039 12.7844 61.8118 14.5188C64.9467 16.3266 66.0838 22.5107 64.4064 30.6535C63.1392 36.8095 60.1097 44.1263 55.9799 51.2873C51.7458 58.6291 46.8977 65.0976 42.0976 69.2931C36.0237 74.6025 30.1515 76.524 27.0765 74.7506C24.0925 73.0311 22.9515 67.3918 24.3832 59.8528C25.5927 53.4827 28.6281 45.6643 33.0193 38.0468H33.0207Z" stroke="#151E3F" stroke-width="4"/>
<path d="M33.0316 51.3064C28.6688 43.7713 25.6985 36.1431 24.4587 29.8122C22.9662 22.1843 24.0214 16.3524 27.0269 14.6127C30.1589 12.7993 36.084 14.9026 42.3008 20.4227C47.0011 24.596 51.8276 30.8736 55.9692 38.0277C60.2155 45.3626 63.398 52.7937 64.636 59.0473C66.2025 66.9614 64.9346 73.0082 61.8624 74.7864C58.8815 76.5122 53.4265 74.6853 47.6098 69.6797C42.6954 65.4508 37.4374 58.9166 33.0316 51.3064Z" stroke="#151E3F" stroke-width="4"/>
</g>
<defs>
<linearGradient id="paint0_linear_210314_289" x1="1.59446" y1="6.92222" x2="93.7836" y2="6.8691" gradientUnits="userSpaceOnUse">
<stop stop-color="#9C27B0"/>
<stop offset="1" stop-color="#FF5722"/>
</linearGradient>
<clipPath id="clip0_210314_289">
<rect width="89" height="89" fill="white"/>
</clipPath>
</defs>
</svg>
