<svg width="89" height="89" viewBox="0 0 89 89" fill="none" xmlns="http://www.w3.org/2000/svg">
<g clip-path="url(#clip0_210314_296)">
<path d="M68.1406 0H20.8594C9.33906 0 0 9.33906 0 20.8594V68.1406C0 79.6609 9.33906 89 20.8594 89H68.1406C79.6609 89 89 79.6609 89 68.1406V20.8594C89 9.33906 79.6609 0 68.1406 0Z" fill="url(#paint0_linear_210314_296)"/>
<path d="M18.6876 35.6873L19.6826 46.7921H44.5334V35.6873H18.6876ZM44.533 13.2109H16.6875L17.6971 24.3158H44.533V13.2109ZM44.533 76.0814V64.5278L44.4844 64.5406L32.1168 61.2014L31.3263 52.3445H20.1787L21.7344 69.7809L44.4819 76.0957L44.533 76.0814Z" fill="#151E3F"/>
<path d="M58.1691 46.7921L56.88 61.1941L44.4948 64.5372V76.0901L67.2603 69.7809L67.4272 67.9046L70.0367 38.6695L70.3075 35.6873L72.3125 13.2109H44.4948V24.3158H60.1424L59.1321 35.6873H44.4948V46.7921H58.1691Z" fill="#151E3F"/>
</g>
<defs>
<linearGradient id="paint0_linear_210314_296" x1="1.59446" y1="6.92222" x2="93.7836" y2="6.8691" gradientUnits="userSpaceOnUse">
<stop stop-color="#9C27B0"/>
<stop offset="1" stop-color="#FF5722"/>
</linearGradient>
<clipPath id="clip0_210314_296">
<rect width="89" height="89" fill="white"/>
</clipPath>
</defs>
</svg>
