<svg width="89" height="88" viewBox="0 0 89 88" fill="none" xmlns="http://www.w3.org/2000/svg">
<g clip-path="url(#clip0_210314_284)">
<path d="M68.1406 0H20.8594C9.33906 0 0 9.23413 0 20.625V67.375C0 78.7659 9.33906 88 20.8594 88H68.1406C79.6609 88 89 78.7659 89 67.375V20.625C89 9.23413 79.6609 0 68.1406 0Z" fill="url(#paint0_linear_210314_284)"/>
<path d="M16.6875 13.0625L19.6808 46.2663H58.1698L56.8783 60.5079L44.4857 63.821L32.1165 60.5127L31.2894 51.3683H20.1432L21.7372 68.9961L44.4833 75.2428L67.2583 68.9961L70.3117 35.2877H29.8372L28.8211 24.0436H71.3179L72.3125 13.0625H16.6875Z" fill="#151E3F"/>
<path d="M44.5 13.0625H16.6875L19.6808 46.2663H44.5V35.2877H29.8372L28.8211 24.0436H44.5V13.0625ZM44.5 63.8162L44.4857 63.821L32.1165 60.5127L31.2894 51.3683H20.1432L21.7372 68.9961L44.4833 75.2428L44.5004 75.2379V63.8162H44.5Z" fill="#151E3F" fill-opacity="0.6"/>
</g>
<defs>
<linearGradient id="paint0_linear_210314_284" x1="1.59446" y1="6.84444" x2="93.7836" y2="6.79072" gradientUnits="userSpaceOnUse">
<stop stop-color="#9C27B0"/>
<stop offset="1" stop-color="#FF5722"/>
</linearGradient>
<clipPath id="clip0_210314_284">
<rect width="89" height="88" fill="white"/>
</clipPath>
</defs>
</svg>
