<svg width="89" height="89" viewBox="0 0 89 89" fill="none" xmlns="http://www.w3.org/2000/svg">
<path d="M18.7011 56.2369C18.7011 61.3877 14.4959 65.5874 9.35056 65.5874C4.20525 65.5874 0 61.3877 0 56.2424C0 51.0971 4.20525 46.8919 9.345 46.8919H18.7011V56.2369ZM23.407 56.2369C23.407 51.0971 27.6122 46.8919 32.7576 46.8919C37.9029 46.8919 42.1081 51.0971 42.1081 56.2369V79.655C42.1081 84.7947 37.9029 89 32.7631 89C30.285 88.9956 27.9095 88.01 26.1561 86.2587C24.4028 84.5075 23.4143 82.1331 23.407 79.655V56.2369ZM32.7631 18.7011C27.6122 18.7011 23.407 14.4959 23.407 9.35056C23.407 4.20525 27.6122 0 32.7631 0C37.914 0 42.1081 4.20525 42.1081 9.345V18.7011H32.7631ZM32.7631 23.407C37.9029 23.407 42.1081 27.6122 42.1081 32.7576C42.1081 37.9029 37.9029 42.1081 32.7631 42.1081H9.345C4.21081 42.1081 0 37.9029 0 32.7631C0 27.6122 4.20525 23.407 9.345 23.407H32.7631ZM70.3044 32.7631C70.3044 27.6122 74.5041 23.407 79.6494 23.407C84.7947 23.407 89 27.6122 89 32.7576C89 37.9029 84.7947 42.1081 79.655 42.1081H70.3044V32.7631ZM65.5874 32.7631C65.5874 37.9029 61.3877 42.1081 56.2424 42.1081C53.7653 42.1023 51.3912 41.116 49.639 39.3649C47.8869 37.6138 46.8992 35.2403 46.8919 32.7631V9.345C46.8919 4.21081 51.0971 0 56.2369 0C61.3877 0 65.5874 4.20525 65.5874 9.345V32.7631ZM56.2369 70.2989C61.3877 70.2989 65.593 74.5041 65.593 79.6494C65.593 84.7947 61.3877 89 56.2369 89C51.086 89 46.8863 84.7947 46.8863 79.655V70.2989H56.2369ZM56.2369 65.5874C51.0971 65.5874 46.8919 61.3877 46.8919 56.2424C46.8919 51.0971 51.0971 46.8919 56.2369 46.8919H79.655C84.7947 46.8919 89 51.0971 89 56.2369C89 61.3877 84.7947 65.5874 79.655 65.5874H56.2369Z" fill="url(#paint0_linear_210314_280)"/>
<defs>
<linearGradient id="paint0_linear_210314_280" x1="1.59446" y1="6.92222" x2="93.7836" y2="6.8691" gradientUnits="userSpaceOnUse">
<stop stop-color="#9C27B0"/>
<stop offset="1" stop-color="#FF5722"/>
</linearGradient>
</defs>
</svg>
