<svg width="89" height="89" viewBox="0 0 89 89" fill="none" xmlns="http://www.w3.org/2000/svg">
<path d="M14.8333 0C10.8993 0 7.12637 1.56279 4.34458 4.34458C1.56279 7.12637 0 10.8993 0 14.8333V74.1667C0 78.1007 1.56279 81.8736 4.34458 84.6554C7.12637 87.4372 10.8993 89 14.8333 89H74.1667C78.1007 89 81.8736 87.4372 84.6554 84.6554C87.4372 81.8736 89 78.1007 89 74.1667V14.8333C89 10.8993 87.4372 7.12637 84.6554 4.34458C81.8736 1.56279 78.1007 0 74.1667 0H14.8333ZM51.0959 64.5497C54.6559 67.4175 58.206 68.8267 61.7561 68.7921C63.9317 68.7921 65.6029 68.3965 66.7599 67.5955C67.3001 67.2448 67.7397 66.7595 68.0353 66.1873C68.331 65.615 68.4725 64.9757 68.4459 64.3322C68.4531 63.6303 68.3063 62.9354 68.0159 62.2964C67.7254 61.6574 67.2984 61.0898 66.7648 60.6337C65.6029 59.6201 63.4076 58.6065 60.1788 57.5879C56.3024 56.4656 53.3061 55.0168 51.2047 53.2368C49.1379 51.4568 48.0897 48.9747 48.0501 45.7856C48.0501 42.7744 49.3554 40.2577 51.9661 38.2255C54.5076 36.1983 57.7511 35.1797 61.7067 35.1797C67.2148 35.1797 71.6401 36.5197 74.9726 39.2045L71.1654 45.1329C69.7947 44.0667 68.222 43.2896 66.5423 42.8486C65.0329 42.3437 63.4561 42.0687 61.8649 42.0327C59.986 42.0327 58.4779 42.3788 57.3506 43.0661C56.2282 43.7583 55.6695 44.6632 55.6695 45.7856C55.6695 47.0217 56.3568 48.0699 57.7313 48.9401C59.1158 49.7757 61.4693 50.7003 64.8019 51.7139C68.8267 52.9105 71.6944 54.5076 73.3953 56.5002C75.1012 58.4928 75.9516 61.0342 75.9516 64.1146C75.9516 67.2692 74.7402 69.9886 72.3076 72.273C69.9145 74.5227 66.4336 75.6995 61.8649 75.8082C55.8821 75.8082 50.8783 74.0134 46.8536 70.4237L51.0959 64.5497ZM23.7531 67.7043C24.9151 68.4311 26.3094 68.7921 27.9411 68.7921C29.6469 68.7921 31.0561 68.3026 32.1834 67.3236C33.3058 66.3099 33.8694 64.5497 33.8694 62.0478V35.8324H41.2119V63.4619C41.1032 67.7389 39.872 70.8242 37.5135 72.7081C36.2266 73.8023 34.7264 74.6172 33.108 75.1012C31.609 75.5579 30.0519 75.796 28.4849 75.8082C25.7655 75.8082 23.3526 75.3385 21.2512 74.3941C19.0015 73.3805 17.1177 71.5857 15.5948 69.0096L20.7073 64.8217C21.6468 66.0924 22.6653 67.0516 23.7531 67.7043Z" fill="url(#paint0_linear_210314_301)"/>
<defs>
<linearGradient id="paint0_linear_210314_301" x1="1.59446" y1="6.92222" x2="93.7836" y2="6.8691" gradientUnits="userSpaceOnUse">
<stop stop-color="#9C27B0"/>
<stop offset="1" stop-color="#FF5722"/>
</linearGradient>
</defs>
</svg>
